<svg xmlns="http://www.w3.org/2000/svg" viewBox="0 0 32 32">
  <defs>
    <linearGradient id="logoGrad" x1="0%" y1="0%" x2="100%" y2="100%">
      <stop offset="0%" stop-color="#4f46e5"/>
      <stop offset="50%" stop-color="#7c3aed"/>
      <stop offset="100%" stop-color="#a855f7"/>
    </linearGradient>
    <linearGradient id="lineGrad1" x1="0%" y1="0%" x2="100%" y2="0%">
      <stop offset="0%" stop-color="#60a5fa"/>
      <stop offset="100%" stop-color="#a78bfa"/>
    </linearGradient>
    <linearGradient id="lineGrad2" x1="0%" y1="0%" x2="100%" y2="0%">
      <stop offset="0%" stop-color="#f472b6"/>
      <stop offset="100%" stop-color="#fb923c"/>
    </linearGradient>
  </defs>
  <rect width="32" height="32" rx="6" fill="url(#logoGrad)"/>
  <rect x="1" y="1" width="30" height="30" rx="5" fill="none" stroke="white" stroke-opacity="0.2"/>
  
  <path d="M6 20 L10 14 L14 18 L18 10 L22 16 L26 8" 
        stroke="url(#lineGrad1)" stroke-width="2.5" fill="none" 
        stroke-linecap="round" stroke-linejoin="round"/>
  <path d="M6 24 L10 22 L14 26 L18 20 L22 24 L26 18" 
        stroke="url(#lineGrad2)" stroke-width="2.5" fill="none" 
        stroke-linecap="round" stroke-linejoin="round" stroke-opacity="0.8"/>
  
  <circle cx="10" cy="14" r="2" fill="#60a5fa"/>
  <circle cx="14" cy="18" r="2" fill="#818cf8"/>
  <circle cx="18" cy="10" r="2" fill="#a78bfa"/>
  <circle cx="22" cy="16" r="2" fill="#c084fc"/>
  <circle cx="26" cy="8" r="2" fill="#e879f9"/>
  
  <circle cx="10" cy="22" r="1.5" fill="#f472b6"/>
  <circle cx="14" cy="26" r="1.5" fill="#fb7185"/>
  <circle cx="18" cy="20" r="1.5" fill="#f97316"/>
  <circle cx="22" cy="24" r="1.5" fill="#fb923c"/>
  <circle cx="26" cy="18" r="1.5" fill="#fbbf24"/>
</svg>